<?xml version="1.0" encoding="utf-8"?>
<!-- Generator: Adobe Illustrator 27.9.0, SVG Export Plug-In . SVG Version: 6.00 Build 0)  -->
<svg version="1.1" id="Layer_1" xmlns="http://www.w3.org/2000/svg" xmlns:xlink="http://www.w3.org/1999/xlink" x="0px" y="0px"
	 viewBox="0 0 190.3 28.3" style="enable-background:new 0 0 190.3 28.3;" xml:space="preserve">
<style type="text/css">
	.st0{fill:#0061AE;}
</style>
<g>
	<path class="st0" d="M122.3,14.8l5.3,3.1v0l0,0c-1.9,1.5-3.7,2-5.3,2c-1.6,0-3.4-0.5-5.3-2l0,0v0L122.3,14.8z M119.6,3.9L119.6,3.9
		v6.4l-5.3,3l0,0C113.2,5.7,119.6,3.9,119.6,3.9 M130.3,13.2L130.3,13.2l-5.3-3l0-6.4h0C125,3.9,131.4,5.7,130.3,13.2 M135.3,16.7
		c-1.4,3.5-3.8,4.5-3.8,4.5c7-7.1,2.7-15.3,2.7-15.3c-1-1.8,0.3-2.6,0.3-2.6c-3,0.8-2.1,3.2-2.1,3.2c1.5,3.6,1.2,6.5,0.7,8.3l-1-0.6
		l0,0c0,0,2.4-9.3-7.2-12.5l0-1.7h-2v11.5l9.4,5.4c-0.2,0.3-0.4,0.7-0.5,1l-9.5-5.5l-9.5,5.5c-0.2-0.3-0.4-0.6-0.5-1l9.4-5.4V0h-2
		l0,1.7c-9.6,3.3-7.2,12.5-7.2,12.5l0,0l-1,0.6c-0.5-1.8-0.8-4.7,0.7-8.3c0,0,0.9-2.5-2.1-3.2c0,0,1.3,0.8,0.3,2.6
		c0,0-4.3,8.2,2.7,15.3c0,0-2.4-1-3.8-4.5c0,0-0.8-1.7-3.1-1.3c0,0,0.9,0.4,1.4,1.9c0,0,2,6.5,9.9,7.5v3.6h3.9V23c0,0-4.1,0-7.2-3.5
		l1-0.6c0.2,0.2,3.2,2.9,7.2,3l0,0h0c0,0,0,0,0,0l0,0c4.1-0.1,7-2.8,7.2-3l1,0.6c-3.1,3.4-7.2,3.5-7.2,3.5v5.3h3.9v-3.6
		c7.9-1,9.9-7.5,9.9-7.5c0.5-1.6,1.4-1.9,1.4-1.9C136.1,14.9,135.3,16.7,135.3,16.7"/>
	<path class="st0" d="M186.8,23.4h-11v-2.6h11V23.4z M171.8,17c0.1,0.1,0.2,0.1,0.3,0.2c0.1,0.2,0.2,0.3,0.2,0.6v5.8
		c0,1.6,0.8,1.8,1.8,1.8h14.4c1.2,0,1.8-0.6,1.8-1.8V4.3c0-0.5-0.4-0.8-1.2-0.8h-2.7c0.1,0.1,0.1,0.2,0.2,0.3c0.1,0.4,0.2,0.9,0.2,2
		v1.4h-3.3v2h3.3v2.1h-3.3v2h3.3v5.5h-11v-1c0-0.5-0.4-0.8-1.1-0.8"/>
	<path class="st0" d="M176.3,13.6c-1.9,0-3.5-1.2-3.5-2.8s1.6-3.2,3.5-3.2c1.9,0,3.5,1.6,3.5,3.2S178.2,13.6,176.3,13.6 M174,3.1
		c0.1,0.1,0.2,0.1,0.3,0.2c0.2,0.2,0.2,0.5,0.2,0.9l0,0.5h-5.5v2h3.2c-1.7,0.9-2.8,2.3-2.8,4c0,2.8,3,4.7,6.8,4.7
		c3.7,0,6.8-1.9,6.8-4.7c0-1.7-1.1-3.1-2.8-4h3.2v-2h-5.4V3.8c0-0.5-0.3-0.7-1-0.7"/>
	<path class="st0" d="M148.4,4c0.1,0.1,0.2,0.1,0.3,0.2c0.2,0.2,0.2,0.5,0.2,0.9v1.8c0,3.3-1.9,5.5-6.3,5.9V15c4.3,0,6.6-1.5,8.1-4
		c2.4,4.2,7.2,4,10.1,4v8.4h-10.1c-0.3,0-0.6-0.1-0.7-0.2c-0.1-0.1-0.2-0.3-0.2-0.6v-4.8c0-0.2,0-0.4-0.1-0.6
		c-0.1-0.1-0.3-0.2-0.5-0.2H146c0.2,0.1,0.3,0.3,0.3,0.5c0,0.2,0.1,0.4,0.1,0.6v5.7c0,0.4,0.1,0.7,0.4,0.9c0.4,0.4,1,0.6,1.8,0.6
		l14.2,0c0.9,0,1.6-0.5,1.6-1.8V4.3c0-0.5-0.4-0.8-1.2-0.8h-2.7c0.1,0.1,0.1,0.2,0.2,0.3c0.1,0.4,0.2,0.9,0.2,2v6.9
		c-4.4-0.1-8.3-0.7-7.9-5.8V4.7c0-0.5-0.3-0.7-1-0.7"/>
	<g>
		<path class="st0" d="M0,13.5h2.1V9.9c0-0.2,0-0.4,0-0.7C2.1,9,2,8.8,1.9,8.7h2.1c0.3,0,0.5,0,0.7,0.1c0.2,0.1,0.2,0.3,0.2,0.5v4.2
			h2.5V9.9c0-0.2,0-0.4,0-0.7c0-0.2-0.1-0.4-0.2-0.6h2.1c0.3,0,0.5,0,0.7,0.1s0.2,0.3,0.2,0.5v4.2h2.5v1.6H0V13.5z M11.9,8H0.4V6.3
			h11.5V8z M2.9,20c0-0.7,0.2-1.2,0.5-1.7c0.4-0.5,0.9-0.9,1.5-1.2c0.6-0.3,1.4-0.5,2.3-0.7s1.8-0.2,2.8-0.2c1,0,2,0.1,2.8,0.2
			s1.6,0.4,2.3,0.7c0.6,0.3,1.1,0.7,1.5,1.2c0.4,0.5,0.5,1,0.5,1.7s-0.2,1.2-0.5,1.7c-0.4,0.5-0.9,0.9-1.5,1.2
			c-0.6,0.3-1.4,0.5-2.3,0.7s-1.8,0.2-2.8,0.2c-1,0-2-0.1-2.8-0.2S5.6,23.2,5,22.9c-0.6-0.3-1.1-0.7-1.5-1.2
			C3.1,21.2,2.9,20.6,2.9,20z M5.8,20c0,0.4,0.1,0.8,0.4,1.1c0.3,0.3,0.6,0.5,1,0.7C7.6,21.9,8,22,8.5,22.1c0.5,0.1,1,0.1,1.5,0.1
			s1,0,1.5-0.1c0.5-0.1,1-0.2,1.4-0.3c0.4-0.2,0.8-0.4,1-0.7c0.3-0.3,0.4-0.6,0.4-1.1s-0.1-0.8-0.4-1.1c-0.3-0.3-0.6-0.5-1-0.7
			c-0.4-0.2-0.9-0.3-1.4-0.3c-0.5-0.1-1-0.1-1.5-0.1s-1,0-1.5,0.1c-0.5,0.1-1,0.2-1.4,0.3c-0.4,0.2-0.8,0.4-1,0.7
			C5.9,19.2,5.8,19.5,5.8,20z M14.5,6.8c0-0.2,0-0.4,0-0.7c0-0.2-0.1-0.4-0.2-0.6h2.2c0.3,0,0.5,0.1,0.7,0.2
			c0.2,0.1,0.2,0.3,0.2,0.5V16h-2.8v-3h-2.8v-1.6h2.8v-1.2h-2.8V8.6h2.8V6.8z"/>
		<path class="st0" d="M33.5,6.8c0-0.2,0-0.4,0-0.7c0-0.2-0.1-0.4-0.2-0.6h2.1c0.3,0,0.5,0.1,0.7,0.2c0.2,0.1,0.2,0.3,0.2,0.5v9.4
			h-2.7v-4.4h-2.2v3.5h-2.6v-0.4c-0.6,0-1.1-0.1-1.7-0.2c-0.5-0.1-1-0.3-1.4-0.5c-0.4-0.2-0.8-0.5-1.1-0.9c-0.3-0.4-0.6-0.8-0.8-1.4
			c-0.2,0.5-0.4,0.9-0.7,1.3s-0.6,0.8-1,1.1c-0.4,0.3-0.9,0.6-1.5,0.7c-0.6,0.2-1.3,0.3-2.1,0.3v-1.7c0.9-0.1,1.5-0.3,2-0.5
			c0.5-0.3,0.9-0.6,1.2-1.1s0.4-0.9,0.5-1.5c0.1-0.6,0.1-1.2,0.1-1.9V6.9c0-0.1,0-0.3,0-0.5c0-0.2-0.1-0.3-0.3-0.4h2.4
			c0.3,0,0.5,0.1,0.6,0.2C24.9,6.3,25,6.4,25,6.6v1.5c0,0.8,0.1,1.5,0.2,2s0.4,1,0.7,1.4c0.3,0.4,0.7,0.6,1.2,0.8
			c0.5,0.2,1,0.3,1.6,0.4V7c0-0.2,0-0.4,0-0.7c0-0.2-0.1-0.4-0.2-0.6h2c0.3,0,0.5,0.1,0.7,0.2s0.2,0.3,0.2,0.5v3.1h2.2V6.8z
			 M21.5,19.7c0-0.7,0.2-1.2,0.5-1.7c0.4-0.5,0.9-0.9,1.5-1.3c0.6-0.3,1.4-0.6,2.3-0.8c0.9-0.2,1.8-0.3,2.8-0.3c1,0,2,0.1,2.8,0.3
			c0.9,0.2,1.6,0.4,2.3,0.8c0.6,0.3,1.1,0.8,1.5,1.3c0.4,0.5,0.5,1.1,0.5,1.7s-0.2,1.2-0.5,1.7c-0.4,0.5-0.9,0.9-1.5,1.3
			c-0.6,0.3-1.4,0.6-2.3,0.8c-0.9,0.2-1.8,0.3-2.8,0.3c-1,0-2-0.1-2.8-0.3c-0.9-0.2-1.6-0.4-2.3-0.8c-0.6-0.3-1.1-0.8-1.5-1.3
			C21.7,20.9,21.5,20.4,21.5,19.7z M24.3,19.7c0,0.4,0.1,0.8,0.4,1.1c0.3,0.3,0.6,0.6,1,0.8c0.4,0.2,0.9,0.3,1.4,0.4
			c0.5,0.1,1,0.1,1.5,0.1c0.5,0,1,0,1.5-0.1c0.5-0.1,1-0.2,1.4-0.4c0.4-0.2,0.8-0.4,1-0.8c0.3-0.3,0.4-0.7,0.4-1.1
			c0-0.4-0.1-0.8-0.4-1.1c-0.3-0.3-0.6-0.6-1-0.8c-0.4-0.2-0.9-0.3-1.4-0.4c-0.5-0.1-1-0.1-1.5-0.1c-0.5,0-1,0-1.5,0.1
			c-0.5,0.1-1,0.2-1.4,0.4c-0.4,0.2-0.8,0.4-1,0.8C24.5,18.9,24.3,19.3,24.3,19.7z"/>
		<path class="st0" d="M59.7,6.1v17.2h-2.9v-9h-2.6c0,1-0.2,1.9-0.4,2.8c-0.2,0.8-0.6,1.6-1.1,2.1c-0.5,0.6-1,1.1-1.7,1.4
			s-1.5,0.5-2.5,0.5c-1,0-1.9-0.2-2.6-0.6c-0.7-0.4-1.3-0.9-1.8-1.5c-0.5-0.7-0.8-1.4-1-2.4c-0.2-0.9-0.3-1.9-0.3-3s0.1-2.1,0.3-3
			c0.2-0.9,0.6-1.7,1-2.4s1.1-1.2,1.8-1.5s1.6-0.5,2.6-0.5c0.9,0,1.7,0.2,2.4,0.5s1.2,0.7,1.7,1.3s0.8,1.2,1.1,2
			c0.3,0.8,0.4,1.7,0.5,2.6h2.6V6.8c0-0.2,0-0.4,0-0.7c0-0.2-0.1-0.4-0.2-0.6h2.2c0.3,0,0.5,0,0.7,0.1C59.6,5.7,59.7,5.9,59.7,6.1z
			 M51.5,13.6c0-1.8-0.2-3.2-0.7-4.2c-0.5-1-1.2-1.5-2.2-1.5c-1,0-1.8,0.5-2.2,1.5c-0.5,1-0.7,2.4-0.7,4.2c0,1.8,0.2,3.2,0.7,4.2
			c0.5,1,1.2,1.5,2.2,1.5c1,0,1.8-0.5,2.2-1.5C51.3,16.8,51.5,15.4,51.5,13.6z"/>
		<path class="st0" d="M72.1,18.2v5.2h-3v-5.2h-7.8v-1.8h18.7v1.8H72.1z M75.2,8.4V6.6c0-0.2,0-0.4-0.1-0.5C75.1,6,75,5.9,74.8,5.9
			h2.7c0.2,0,0.3,0,0.4,0.1s0.2,0.2,0.2,0.4V13c0,0.5-0.1,0.9-0.3,1.1c-0.2,0.2-0.5,0.3-0.9,0.3H64.4c-0.4,0-0.8-0.1-1-0.3
			C63.1,14,63,13.6,63,13V6.6c0-0.2,0-0.4-0.1-0.5c-0.1-0.1-0.2-0.2-0.3-0.3h2.7c0.2,0,0.3,0,0.4,0.1c0.1,0.1,0.2,0.2,0.2,0.4v2
			H75.2z M75.2,10.2h-9.4v2.5h9.4V10.2z"/>
		<path class="st0" d="M89.5,20.7h-7.8c-0.4,0-0.8-0.1-1-0.3c-0.3-0.2-0.4-0.6-0.4-1.2V7.4c0-0.2,0-0.4-0.1-0.5
			c-0.1-0.1-0.2-0.2-0.3-0.3h2.7c0.2,0,0.3,0,0.4,0.1C82.9,6.9,83,7,83,7.2v4.5h5V7.4c0-0.2,0-0.4-0.1-0.5c-0.1-0.1-0.2-0.2-0.3-0.3
			h2.7c0.2,0,0.3,0,0.4,0.1c0.1,0.1,0.1,0.2,0.1,0.4v12.1c0,0.5-0.1,0.9-0.3,1.1C90.1,20.6,89.8,20.7,89.5,20.7z M88,19v-5.5h-5V19
			H88z M96.3,6.1v5.9h3.1v1.8h-3.1v9.5h-2.9V6.8c0-0.2,0-0.4,0-0.7c0-0.2-0.1-0.4-0.2-0.6h2.2c0.3,0,0.5,0,0.7,0.1
			S96.3,5.9,96.3,6.1z"/>
	</g>
</g>
</svg>
